<svg xmlns="http://www.w3.org/2000/svg" style="display: none;">
  <symbol id="icon-logo" viewBox="0 0 36 36"><path fill="currentColor" d="M26.8584 21.5566C27.0402 21.5567 27.1307 21.6888 27.1309 21.9531C27.1309 22.0689 27.1151 22.2932 27.082 22.624C27.0325 22.872 27.0069 23.1202 27.0068 23.3682C27.0068 24.1293 27.2311 24.7338 27.6777 25.1807C28.1411 25.6275 28.8115 25.8515 29.6885 25.8516C30.0586 25.8516 30.417 25.8028 30.7637 25.709C30.9609 26.6279 31.3474 27.4041 31.9248 28.0361C32.6267 28.791 33.5572 29.2427 34.7148 29.3936C33.4256 31.9549 31.259 33.9821 28.5918 35.0869C26.3866 36.0002 23.5909 36 18 36C12.4091 36 9.61338 36.0002 7.40821 35.0869C4.75845 33.9893 2.60178 31.9819 1.30957 29.4443C1.37698 29.4466 1.44493 29.4512 1.51367 29.4512C2.68884 29.4512 3.7401 29.0375 4.66699 28.21C5.59382 27.3658 6.21482 26.2487 6.5293 24.8584C6.8951 24.8431 7.25154 24.8109 7.59864 24.7676C7.58496 24.9691 7.57619 25.1735 7.57617 25.3799C7.57622 26.5877 7.89882 27.5727 8.54395 28.334C9.20593 29.0787 10.0423 29.4511 11.0518 29.4512C11.7468 29.4512 12.3512 29.3027 12.8643 29.0049C13.3939 28.707 14.006 28.1185 14.7012 27.2412C15.3631 28.714 16.3235 29.4509 17.5811 29.4512C18.3755 29.4512 19.1783 29.1612 19.9893 28.582C20.1663 28.452 20.3391 28.3149 20.5098 28.1738C20.5382 28.2753 20.5687 28.3704 20.6016 28.458C20.8663 29.1199 21.3136 29.451 21.9424 29.4512C22.4555 29.4512 22.8279 29.3185 23.0596 29.0537C23.3078 28.7723 23.5231 28.2426 23.7051 27.4648C23.9533 26.4554 24.2767 25.4951 24.6738 24.585C25.071 23.6748 25.4681 22.9465 25.8652 22.4004C26.2788 21.838 26.6102 21.5569 26.8584 21.5566ZM13.8574 20.1904C13.8243 21.0838 13.8076 21.7297 13.8076 22.127C13.8076 23.2355 13.8903 24.2373 14.0557 25.1309C13.5757 25.826 13.1787 26.3064 12.8643 26.5713C12.5499 26.8195 12.2353 26.9433 11.9209 26.9434C11.0936 26.9432 10.6797 26.3389 10.6797 25.1309C10.6798 23.9892 10.9776 22.9549 11.5732 22.0283C12.1856 21.085 12.9472 20.4718 13.8574 20.1904ZM35.8281 25.2646C35.7693 25.8772 35.6882 26.4298 35.582 26.9404C34.8545 26.8413 34.3215 26.4705 33.9854 25.8262C34.6696 25.6594 35.2837 25.4714 35.8281 25.2646ZM2.35742 20.3643C2.30779 20.629 2.28323 20.8945 2.28321 21.1592C2.28324 21.7878 2.41607 22.3838 2.68067 22.9463C2.96196 23.5089 3.35919 23.965 3.87207 24.3125C3.73966 25.1231 3.47513 25.7436 3.07813 26.1738C2.69744 26.6042 2.24157 26.8193 1.71192 26.8193C1.23228 26.8191 0.810212 26.5793 0.446291 26.0996C0.358696 25.9786 0.282316 25.8437 0.216799 25.6953C0.116268 24.8418 0.0631361 23.8706 0.0341821 22.7295C0.138125 22.1714 0.315528 21.7055 0.570315 21.333C1.01704 20.6878 1.57167 20.3645 2.2334 20.3643H2.35742ZM18 0C23.5909 0 26.3866 -0.000164073 28.5918 0.913086C31.5321 2.13101 33.869 4.46787 35.0869 7.4082C35.9873 9.58222 35.9988 12.3302 35.999 17.7646C35.0114 17.802 34.1166 18.0877 33.3154 18.627C32.4714 19.2062 31.8091 19.9924 31.3291 20.9854C31.0101 21.6345 30.7984 22.3207 30.6914 23.043C30.6715 23.0443 30.6513 23.0459 30.6318 23.0459C30.2184 23.0456 30.0117 22.7558 30.0117 22.1768C30.0118 22.0109 30.0777 21.5969 30.21 20.9355C30.3589 20.1081 30.4336 19.5862 30.4336 19.3711C30.4334 18.2957 29.895 17.7578 28.8193 17.7578C28.2733 17.758 27.6686 17.9476 27.0068 18.3281C26.3614 18.7088 25.6991 19.3466 25.0205 20.2402C24.342 21.1339 23.7297 22.2927 23.1836 23.7158C23.2498 22.9879 23.3324 22.3753 23.4316 21.8789C23.5309 21.3824 23.6636 20.8026 23.8291 20.1406C24.0772 19.2142 24.2011 18.6183 24.2012 18.3535C24.2011 18.122 24.1353 17.9645 24.0029 17.8818C23.8704 17.7993 23.6383 17.7578 23.3076 17.7578C22.6955 17.7579 22.2156 17.8738 21.8682 18.1055C21.5373 18.3206 21.2964 18.6678 21.1475 19.1475C20.5351 21.0839 20.2295 23.1287 20.2295 25.2803C20.2295 25.3142 20.2303 25.3483 20.2305 25.3818C19.9411 25.6881 19.6879 25.9362 19.4688 26.124C19.0053 26.5212 18.5494 26.7207 18.1025 26.7207C17.7552 26.7204 17.465 26.5131 17.2334 26.0996C17.0184 25.6858 16.8777 24.9985 16.8115 24.0391C18.3343 21.4239 19.5506 18.8743 20.4609 16.3916C21.3712 13.909 21.8272 11.7404 21.8272 9.88672C21.827 8.57961 21.5863 7.60338 21.1064 6.95801C20.643 6.31279 20.0553 5.98926 19.3438 5.98926C17.9043 5.98969 16.7373 7.13178 15.8438 9.41504C14.9665 11.6825 14.3702 14.4229 14.0557 17.6338C12.8311 17.7663 11.7215 18.1967 10.7285 18.9248C9.75228 19.6364 8.98257 20.5633 8.41992 21.7051C8.36477 21.8154 8.3144 21.9278 8.26465 22.04C7.70016 22.1505 7.18776 22.2216 6.72754 22.251C6.59504 20.977 6.13991 19.9093 5.36231 19.0488C4.60097 18.1719 3.59074 17.7324 2.33301 17.7324C1.49417 17.7325 0.717221 17.9236 0 18.2998C0 18.2008 0 18.1008 0 18C0 12.4091 -0.000161691 9.61338 0.913088 7.4082C2.13102 4.46787 4.46787 2.13101 7.40821 0.913086C9.61338 -0.000164073 12.4091 0 18 0ZM35.7979 20.1904C35.8674 20.1904 35.9337 20.1962 35.9961 20.207C35.9925 21.1666 35.9837 22.0287 35.9629 22.8105C35.949 22.8224 35.9362 22.8359 35.9219 22.8477C35.3592 23.3109 34.5895 23.658 33.6133 23.8896V23.8398C33.6133 23.7573 33.6164 23.6753 33.6191 23.5947C33.7278 23.3309 33.7851 23.0246 33.7852 22.6738C33.7851 22.5891 33.7782 22.5087 33.7686 22.4336C33.872 22.0048 34.0281 21.6126 34.2344 21.2578C34.6645 20.5467 35.1859 20.1907 35.7979 20.1904ZM19.0713 8.42188C19.22 8.42204 19.3441 8.59651 19.4434 8.94336C19.5592 9.29081 19.6171 9.7796 19.6172 10.4082C19.6172 12.8577 18.6905 16.1023 16.8369 20.1406C16.9362 18.1713 17.0935 16.2843 17.3086 14.4805C17.5403 12.6765 17.8135 11.2192 18.1279 10.1104C18.4422 8.98571 18.757 8.42234 19.0713 8.42188Z"/></symbol>
  
  <symbol id="icon-minimize" viewBox="0 0 16 16" fill="none"><path d="M3.333 8H12.667" stroke="currentColor" stroke-width="1.6" stroke-linecap="round"/></symbol>
  <symbol id="icon-close" viewBox="0 0 16 16" fill="none"><path d="M12 4L4 12M4 4L12 12" stroke="currentColor" stroke-width="1.6" stroke-linecap="round" stroke-linejoin="round"/></symbol>
  
  <symbol id="icon-folder" viewBox="0 0 20 20" fill="none"><path d="M10.565 4.5H15.5C16.7703 4.5 17.8192 5.44737 17.9789 6.67409L17.9947 6.83562L18 7V14.5C18 15.8255 16.9685 16.91 15.6644 16.9947L15.5 17H4.5C3.17452 17 2.08996 15.9685 2.00532 14.6644L2 14.5V7.5H7.07069L7.22385 7.49217C7.52777 7.46098 7.81509 7.33763 8.04702 7.13877L8.15819 7.03312L10.565 4.5ZM7.16667 3C7.43713 3 7.70151 3.0731 7.93238 3.21016L8.06667 3.3L9.385 4.289L7.43319 6.34437L7.3724 6.39872C7.3077 6.44767 7.23201 6.48017 7.15196 6.49335L7.07069 6.5H2V5.5C2 4.17452 3.03154 3.08996 4.33562 3.00532L4.5 3H7.16667Z" fill="currentColor"/></symbol>
  <symbol id="icon-plus" viewBox="0 0 20 20" fill="none"><path d="M10 4.167V15.833M4.167 10H15.833" stroke="currentColor" stroke-width="2" stroke-linecap="round" stroke-linejoin="round"/></symbol>
  
  <symbol id="icon-chevron" viewBox="0 0 24 24" fill="none"><path d="M6 9L12 15L18 9" stroke="currentColor" stroke-width="2" stroke-linecap="round" stroke-linejoin="round"/></symbol>
  <symbol id="icon-check" viewBox="0 0 16 16" fill="none"><path d="M3 8L6.5 11.5L13 4.5" stroke="currentColor" stroke-width="1.8" stroke-linecap="round" stroke-linejoin="round"/></symbol>
  <symbol id="icon-drag" viewBox="0 0 20 20" fill="none"><path d="M2.5 10H17.5M2.5 5H17.5M2.5 15H17.5" stroke="currentColor" stroke-width="2" stroke-linecap="round" stroke-linejoin="round"/></symbol>
</svg>
